<svg xmlns="http://www.w3.org/2000/svg" viewBox="0 0 240 206"><path d="M203 28V-.5h-29V28H66V-.5H37V28H10v16h220V28h-27zM10 53.6h3v2.8h-3v-2.8zm4.8 0h3v2.8h-3v-2.8zm4.8 0h3v2.8h-3v-2.8zm5 0h2.8v2.8h-3v-2.8zm4.7 0h3v2.8h-3v-2.8zm4.8 0h3v2.8h-3v-2.8zm0 4.8h3v2.8h-3v-2.8zm0 4.7h3v3h-3v-3zm0 5h3v2.7h-3V68zm0 4.6h3v2.8h-3v-2.8zm0 4.7h3V80h-3v-2.7zm-4.7-19h3v3h-3v-3zm0 4.8h3v3h-3v-3zm0 5h3v2.7h-3V68zm0 4.6h3v2.8h-3v-2.8zm0 4.7h3V80h-3v-2.7zm-4.8-19h3v3h-3v-3zm0 4.8h3v3h-3v-3zm0 5h3v2.7h-3V68zm0 4.6h3v2.8h-3v-2.8zm0 4.7h3V80h-3v-2.7zm-5-19h3v3h-3v-3zm0 4.8h3v3h-3v-3zm0 5h3v2.7h-3V68zm0 4.6h3v2.8h-3v-2.8zm0 4.7h3V80h-3v-2.7zm-4.7-19h3v3h-3v-3zm0 4.8h3v3h-3v-3zm0 5h3v2.7h-3V68zm0 4.6h3v2.8h-3v-2.8zm0 4.7h3V80h-3v-2.7zm-4.8-19h3v3h-3v-3zm0 4.8h3v3h-3v-3zm0 5h3v2.7h-3V68zm0 4.6h3v2.8h-3v-2.8zm0 4.7h3V80h-3v-2.7zm31.8-23.7h3v2.8h-3v-2.8zm5 0h2.8v2.8h-3v-2.8zm4.7 0h3v2.8h-3v-2.8zm4.8 0h3v2.8h-3v-2.8zm4.8 0h3v2.8h-3v-2.8zm5 0h3v2.8h-3v-2.8zm0 4.8h3v2.8h-3v-2.8zm0 4.7h3v3h-3v-3zm0 5h3v2.7h-3V68zm0 4.6h3v2.8h-3v-2.8zm0 4.7h3V80h-3v-2.7zm-5-19h3v3h-3v-3zm0 4.8h3v3h-3v-3zm0 5h3v2.7h-3V68zm0 4.6h3v2.8h-3v-2.8zm0 4.7h3V80h-3v-2.7zm-4.7-19h3v3h-3v-3zm0 4.8h3v3h-3v-3zm0 5h3v2.7h-3V68zm0 4.6h3v2.8h-3v-2.8zm0 4.7h3V80h-3v-2.7zm-4.8-19h3v3h-3v-3zm0 4.8h3v3h-3v-3zm0 5h3v2.7h-3V68zm0 4.6h3v2.8h-3v-2.8zm0 4.7h3V80h-3v-2.7zm-4.8-19h3v3h-3v-3zm0 4.8h3v3h-3v-3zm0 5h3v2.7h-3V68zm0 4.6h3v2.8h-3v-2.8zm0 4.7h3V80h-3v-2.7zm-5-19h3v3h-3v-3zm0 4.8h3v3h-3v-3zm0 5h3v2.7h-3V68zm0 4.6h3v2.8h-3v-2.8zm0 4.7h3V80h-3v-2.7zm32-23.7h3v2.8h-3v-2.8zm4.8 0h3v2.8h-3v-2.8zm4.8 0h3v2.8h-3v-2.8zm5 0H91v2.8h-2.8v-2.8zm4.7 0h3v2.8h-3v-2.8zm4.8 0h3v2.8h-3v-2.8zm0 4.8h3v2.8h-3v-2.8zm0 4.7h3v3h-3v-3zm0 5h3v2.7h-3V68zm0 4.6h3v2.8h-3v-2.8zm0 4.7h3V80h-3v-2.7zm-4.8-19h3v3h-3v-3zm0 4.8h3v3h-3v-3zm0 5h3v2.7h-3V68zm0 4.6h3v2.8h-3v-2.8zm0 4.7h3V80h-3v-2.7zm-4.8-19h3v3h-3v-3zm0 4.8h3v3h-3v-3zm0 5h3v2.7h-3V68zm0 4.6h3v2.8h-3v-2.8zm0 4.7h3V80h-3v-2.7zm-5-19h3v3h-3v-3zm0 4.8h3v3h-3v-3zm0 5h3v2.7h-3V68zm0 4.6h3v2.8h-3v-2.8zm0 4.7h3V80h-3v-2.7zm-4.7-19h3v3h-3v-3zm0 4.8h3v3h-3v-3zm0 5h3v2.7h-3V68zm0 4.6h3v2.8h-3v-2.8zm0 4.7h3V80h-3v-2.7zm-4.8-19h3v3h-3v-3zm0 4.8h3v3h-3v-3zm0 5h3v2.7h-3V68zm0 4.6h3v2.8h-3v-2.8zm0 4.7h3V80h-3v-2.7zM169.2 179h3v2.7h-3V179zm4.8 0h3v2.7h-3V179zm5 0h2.8v2.7h-3V179zm4.7 0h3v2.7h-3V179zm4.8 0h3v2.7h-3V179zm4.8 0h3v2.7h-3V179zm0 4.7h3v2.8h-3v-2.8zm0 4.7h3v2.8h-3v-2.8zm0 4.8h3v2.8h-3v-2.8zm0 4.7h3v2.7h-3V198zm0 4.7h3v2.8h-3v-2.8zm-4.8-19h3v2.8h-3v-2.8zm0 4.7h3v2.8h-3v-2.8zm0 4.8h3v2.8h-3v-2.8zm0 4.7h3v2.7h-3V198zm0 4.7h3v2.8h-3v-2.8zm-4.8-19h3v2.8h-3v-2.8zm0 4.7h3v2.8h-3v-2.8zm0 4.8h3v2.8h-3v-2.8zm0 4.7h3v2.7h-3V198zm0 4.7h3v2.8h-3v-2.8zm-4.8-19h2.8v2.8h-3v-2.8zm0 4.7h2.8v2.8h-3v-2.8zm0 4.8h2.8v2.8h-3v-2.8zm0 4.7h2.8v2.7h-3V198zm0 4.7h2.8v2.8h-3v-2.8zm-5-19h3v2.8h-3v-2.8zm0 4.7h3v2.8h-3v-2.8zm0 4.8h3v2.8h-3v-2.8zm0 4.7h3v2.7h-3V198zm0 4.7h3v2.8h-3v-2.8zm-4.8-19h3v2.8h-3v-2.8zm0 4.7h3v2.8h-3v-2.8zm0 4.8h3v2.8h-3v-2.8zm0 4.7h3v2.7h-3V198zm0 4.7h3v2.8h-3v-2.8zm32-23.8h2.8v2.7h-3V179zm4.7 0h2.8v2.7h-3V179zm4.7 0h3v2.7h-3V179zm4.8 0h3v2.7h-3V179zm5 0h2.8v2.7h-3V179zm4.7 0h3v2.7h-3V179zm0 4.7h3v2.8h-3v-2.8zm0 4.7h3v2.8h-3v-2.8zm0 4.8h3v2.8h-3v-2.8zm0 4.7h3v2.7h-3V198zm0 4.7h3v2.8h-3v-2.8zm-4.8-19h3v2.8h-3v-2.8zm0 4.7h3v2.8h-3v-2.8zm0 4.8h3v2.8h-3v-2.8zm0 4.7h3v2.7h-3V198zm0 4.7h3v2.8h-3v-2.8zm-5-19h3v2.8h-3v-2.8zm0 4.7h3v2.8h-3v-2.8zm0 4.8h3v2.8h-3v-2.8zm0 4.7h3v2.7h-3V198zm0 4.7h3v2.8h-3v-2.8zm-4.7-19h3v2.8h-3v-2.8zm0 4.7h3v2.8h-3v-2.8zm0 4.8h3v2.8h-3v-2.8zm0 4.7h3v2.7h-3V198zm0 4.7h3v2.8h-3v-2.8zm-4.8-19h2.8v2.8h-3v-2.8zm0 4.7h2.8v2.8h-3v-2.8zm0 4.8h2.8v2.8h-3v-2.8zm0 4.7h2.8v2.7h-3V198zm0 4.7h2.8v2.8h-3v-2.8zm-5-19h3v2.8h-3v-2.8zm0 4.7h3v2.8h-3v-2.8zm0 4.8h3v2.8h-3v-2.8zm0 4.7h3v2.7h-3V198zm0 4.7h3v2.8h-3v-2.8zm-95.5-149h27V80h-27V53.6zm32 0h27V80h-27V53.6zm31.7 0h27V80h-27V53.6zm32 0h27V80h-27V53.6zm0 31.2h27v26.5h-27V85zm0 31.3h27V143h-27v-26.7zm0 31.3h27v26.6h-27v-26.6zM169 85h27v26.5h-27V85zm0 31.3h27V143h-27v-26.7zm0 31.3h27v26.6h-27v-26.6zM137.4 85h27v26.5h-27V85zm0 31.3h27V143h-27v-26.7zm0 31.3h27v26.6h-27v-26.6zm0 31.3h27v26.5h-27V179zm-32-94h27v26.5h-27V85zm0 31.3h27V143h-27v-26.7zm0 31.3h27v26.6h-27v-26.6zm0 31.3h27v26.5h-27V179zM73.8 85h27v26.5h-27V85zm0 31.3h27V143h-27v-26.7zm0 31.3h27v26.6h-27v-26.6zm0 31.3h27v26.5h-27V179zm-32-94h27v26.5h-27V85zm0 31.3h27V143h-27v-26.7zm0 31.3h27v26.6h-27v-26.6zm0 31.3h27v26.5h-27V179zM10 85h27v26.5H10V85zm0 31.3h27V143H10v-26.7zm0 31.3h27v26.6H10v-26.6zm0 31.3h27v26.5H10V179z"/></svg>