<svg xmlns="http://www.w3.org/2000/svg" viewBox="0 0 240 240"><path d="M120 0C53.7 0 0 53.7 0 120s53.7 120 120 120 120-53.7 120-120S186.3 0 120 0zm0 225c-58 0-105-47-105-105S62 15 120 15s105 47 105 105-47 105-105 105zm9-93.6c0-2.8-.7-5-2-6.6-1.5-1.6-4-3-7.5-4.6-3.5-1.4-6.8-3-9.7-4.3-3-1.6-5.5-3.3-7.7-5.2-2-2-3.7-4.2-5-6.7-1-2.4-1.6-5.5-1.6-9 0-6 2-11 6-15 4.2-4 9.6-6.2 16.5-6.8V61.7h8.5v11.5c6.6 1 11.7 3.7 15.5 8 3.7 4.5 5.6 10 5.6 17h-18.2c0-3.8-.7-6.7-2.2-8.7-1.4-2-3.5-3-6-3s-4.3.7-5.6 2.2c-1.3 1.5-2 3.5-2 6 0 2.7.8 4.8 2.3 6.4 1.4 1.7 3.8 3 7.2 4.5 3.3 1.4 6.5 3 9.4 4.4 3 1.4 5.5 3 7.7 5s3.8 4.3 5 7c1.3 2.5 2 5.6 2 9.2 0 6-2 11-6 15-3.8 4-9 6-15.8 6.8v10.8H117V153c-8-.8-14-3.5-18-8-4.3-4.5-6.4-10.5-6.4-18h18c0 4.2 1 7.3 2.8 9.4 1.8 2 4.4 3.2 7.7 3.2 2.5 0 4.5-.7 6-2.2 1.3-1.5 2-3.5 2-6z"/></svg>