<?xml version="1.0" standalone="no"?>
<svg version="1.0" xmlns="http://www.w3.org/2000/svg"
 width="30.000000pt" height="20.000000pt" viewBox="0 0 140.000000 100.000000"
 preserveAspectRatio="xMidYMid meet">

<g transform="translate(0.000000,100.000000) scale(0.100000,-0.100000)"
fill="rgba(0,0,0,0)" stroke="none">
<path fill="#2196f3" d="M505 972 l-60 -4 73 -19 c97 -24 162 -61 221 -124 143 -151 173 -383
73 -569 -35 -65 -125 -157 -179 -182 -23 -10 -43 -21 -43 -24 0 -3 93 -4 207
-2 147 2 210 7 215 15 5 7 20 48 34 92 22 65 27 100 28 190 1 186 -55 326
-184 455 -79 79 -145 119 -255 152 -55 17 -56 18 -17 13 104 -13 235 -88 329
-188 163 -175 221 -445 145 -671 l-19 -56 142 0 c124 0 144 2 149 17 4 9 7 62
7 117 0 106 -15 173 -64 294 -76 189 -230 349 -420 437 -129 59 -196 70 -382
57z"/>
<path fill="#2196f3" d="M345 917 c-164 -42 -288 -183 -317 -361 -31 -185 70 -380 240 -463
51 -25 67 -28 162 -28 99 0 110 2 171 32 84 41 160 121 202 210 61 131 47 307
-33 432 -92 142 -272 217 -425 178z m195 -92 c48 -17 113 -63 147 -106 42 -50
40 -55 -24 -63 -160 -18 -317 -77 -470 -175 -44 -28 -83 -51 -86 -51 -15 0 -6
112 13 171 34 107 110 190 207 225 51 18 161 17 213 -1z m222 -286 c18 -103
-32 -240 -115 -315 -27 -24 -54 -44 -61 -44 -12 0 -60 193 -58 239 1 40 16 65
55 95 35 26 146 76 162 72 5 -2 13 -22 17 -47z m-365 -152 c27 -27 115 -225
107 -239 -4 -6 -38 -9 -83 -6 -113 7 -194 52 -258 145 -26 37 -33 57 -26 64 6
6 48 24 94 40 93 33 131 32 166 -4z"/>
</g>
</svg>
